<svg xmlns="http://www.w3.org/2000/svg" xmlns:xlink="http://www.w3.org/1999/xlink" width="500" zoomAndPan="magnify" viewBox="0 0 375 374.999991" height="500" preserveAspectRatio="xMidYMid meet" version="1.0"><defs><clipPath id="4e0e04d5c0"><path d="M 145 70 L 247 70 L 247 306.234375 L 145 306.234375 Z M 145 70 " clip-rule="nonzero"/></clipPath><clipPath id="28827afc33"><path d="M 136 70 L 238 70 L 238 306.234375 L 136 306.234375 Z M 136 70 " clip-rule="nonzero"/></clipPath><clipPath id="b00e674a80"><path d="M 129 70 L 231 70 L 231 306.234375 L 129 306.234375 Z M 129 70 " clip-rule="nonzero"/></clipPath></defs><path fill="#5ce1e6" d="M 111.453125 272.75 C 106.425781 272.75 103.078125 271.074219 99.726562 267.726562 L 32.734375 200.753906 C 26.035156 194.058594 26.035156 184.011719 32.734375 177.316406 L 99.726562 110.34375 C 106.425781 103.644531 116.476562 103.644531 123.175781 110.34375 C 129.875 117.039062 129.875 127.085938 123.175781 133.78125 L 67.90625 189.035156 L 123.175781 244.285156 C 129.875 250.984375 129.875 261.027344 123.175781 267.726562 C 119.824219 271.074219 116.476562 272.75 111.453125 272.75 Z M 111.453125 272.75 " fill-opacity="1" fill-rule="nonzero"/><path fill="#5ce1e6" d="M 278.933594 272.75 C 273.90625 272.75 270.558594 271.074219 267.207031 267.726562 C 260.507812 261.027344 260.507812 250.984375 267.207031 244.285156 L 322.476562 189.035156 L 267.207031 133.78125 C 260.507812 127.085938 260.507812 117.039062 267.207031 110.34375 C 273.90625 103.644531 283.957031 103.644531 290.65625 110.34375 L 357.648438 177.316406 C 364.347656 184.011719 364.347656 194.058594 357.648438 200.753906 L 290.65625 267.726562 C 287.304688 271.074219 283.957031 272.75 278.933594 272.75 Z M 278.933594 272.75 " fill-opacity="1" fill-rule="nonzero"/><g clip-path="url(#4e0e04d5c0)"><path fill="#5ce1e6" d="M 161.695312 306.234375 C 160.019531 306.234375 158.347656 306.234375 156.671875 304.5625 C 148.296875 301.210938 143.273438 292.839844 146.621094 282.796875 L 213.613281 81.878906 C 216.964844 73.507812 225.339844 68.484375 235.386719 71.832031 C 243.761719 75.183594 248.785156 83.554688 245.4375 93.601562 L 178.445312 294.515625 C 175.09375 301.210938 168.394531 306.234375 161.695312 306.234375 Z M 161.695312 306.234375 " fill-opacity="1" fill-rule="nonzero"/></g><path fill="#ff914d" d="M 102.585938 272.75 C 97.5625 272.75 94.210938 271.074219 90.863281 267.726562 L 23.871094 200.753906 C 17.171875 194.058594 17.171875 184.011719 23.871094 177.316406 L 90.863281 110.34375 C 97.5625 103.644531 107.609375 103.644531 114.308594 110.34375 C 121.007812 117.039062 121.007812 127.085938 114.308594 133.78125 L 59.042969 189.035156 L 114.308594 244.285156 C 121.007812 250.984375 121.007812 261.027344 114.308594 267.726562 C 110.960938 271.074219 107.609375 272.75 102.585938 272.75 Z M 102.585938 272.75 " fill-opacity="1" fill-rule="nonzero"/><path fill="#ff914d" d="M 270.066406 272.75 C 265.042969 272.75 261.691406 271.074219 258.34375 267.726562 C 251.644531 261.027344 251.644531 250.984375 258.34375 244.285156 L 313.613281 189.035156 L 258.34375 133.78125 C 251.644531 127.085938 251.644531 117.039062 258.34375 110.34375 C 265.042969 103.644531 275.089844 103.644531 281.789062 110.34375 L 348.785156 177.316406 C 355.484375 184.011719 355.484375 194.058594 348.785156 200.753906 L 281.789062 267.726562 C 278.441406 271.074219 275.089844 272.75 270.066406 272.75 Z M 270.066406 272.75 " fill-opacity="1" fill-rule="nonzero"/><g clip-path="url(#28827afc33)"><path fill="#ff914d" d="M 152.832031 306.234375 C 151.15625 306.234375 149.480469 306.234375 147.804688 304.5625 C 139.433594 301.210938 134.40625 292.839844 137.757812 282.796875 L 204.75 81.878906 C 208.097656 73.507812 216.472656 68.484375 226.523438 71.832031 C 234.894531 75.183594 239.921875 83.554688 236.570312 93.601562 L 169.578125 294.515625 C 166.230469 301.210938 159.53125 306.234375 152.832031 306.234375 Z M 152.832031 306.234375 " fill-opacity="1" fill-rule="nonzero"/></g><path fill="#ffffff" d="M 95.773438 272.75 C 90.75 272.75 87.402344 271.074219 84.050781 267.726562 L 17.058594 200.753906 C 10.359375 194.058594 10.359375 184.011719 17.058594 177.316406 L 84.050781 110.34375 C 90.75 103.644531 100.800781 103.644531 107.5 110.34375 C 114.199219 117.039062 114.199219 127.085938 107.5 133.78125 L 52.230469 189.035156 L 107.5 244.285156 C 114.199219 250.984375 114.199219 261.027344 107.5 267.726562 C 104.148438 271.074219 100.800781 272.75 95.773438 272.75 Z M 95.773438 272.75 " fill-opacity="1" fill-rule="nonzero"/><path fill="#ffffff" d="M 263.257812 272.75 C 258.230469 272.75 254.882812 271.074219 251.53125 267.726562 C 244.832031 261.027344 244.832031 250.984375 251.53125 244.285156 L 306.800781 189.035156 L 251.53125 133.78125 C 244.832031 127.085938 244.832031 117.039062 251.53125 110.34375 C 258.230469 103.644531 268.28125 103.644531 274.980469 110.34375 L 341.972656 177.316406 C 348.671875 184.011719 348.671875 194.058594 341.972656 200.753906 L 274.980469 267.726562 C 271.628906 271.074219 268.28125 272.75 263.257812 272.75 Z M 263.257812 272.75 " fill-opacity="1" fill-rule="nonzero"/><g clip-path="url(#b00e674a80)"><path fill="#ffffff" d="M 146.019531 306.234375 C 144.34375 306.234375 142.667969 306.234375 140.996094 304.5625 C 132.621094 301.210938 127.597656 292.839844 130.945312 282.796875 L 197.9375 81.878906 C 201.289062 73.507812 209.664062 68.484375 219.710938 71.832031 C 228.085938 75.183594 233.109375 83.554688 229.761719 93.601562 L 162.769531 294.515625 C 159.417969 301.210938 152.71875 306.234375 146.019531 306.234375 Z M 146.019531 306.234375 " fill-opacity="1" fill-rule="nonzero"/></g></svg>